# xmcd CD database file
#
# Track frame offsets:
#	150
#	15520
#	36572
#	58347
#	79030
#	101461
#	123888
#	145690
#	164176
#	184833
#	200823
#
# Disc length: 2939 seconds
#
# Revision: 0
# Processed by: cddbd v1.5PL3 Copyright (c) Steve Scherf et al.
# Submitted via: CDex 1.51
#
DISCID=9d0b790b
DTITLE=angela - A.I.B
DYEAR=2003
DGENRE=Jazz
TTITLE0=東京オン・ステージ
TTITLE1=シャッフル・ザ・ベイベー
TTITLE2=be action〜８月の風〜
TTITLE3=あなたは振り向かない
TTITLE4=此処に居るよ
TTITLE5=パラサイト
TTITLE6=トランスポーズ
TTITLE7=everything goes wrong
TTITLE8=雪
TTITLE9=純情lady
TTITLE10=恋のfirst run＜ライブ収録＞ VIVA☆THE ワンマン 池袋 LIVE INN ROSA
EXTD=YEAR: 2003
EXTT0=
EXTT1=
EXTT2=
EXTT3=
EXTT4=
EXTT5=
EXTT6=
EXTT7=
EXTT8=
EXTT9=
EXTT10=
PLAYORDER=
